<mxfile host="www.draw.io" modified="2020-04-27T10:02:59.365Z" agent="5.0 (Windows NT 10.0; Win64; x64) AppleWebKit/537.36 (KHTML, like Gecko) Chrome/81.0.4044.122 Safari/537.36" etag="5vAGFArEIJHkIhg2yXjj" version="13.0.1" type="github">
  <diagram id="DtbRDUzPlATv05o-YsOn" name="Page-1">
    <mxGraphModel dx="4174" dy="3656" grid="1" gridSize="10" guides="1" tooltips="1" connect="1" arrows="1" fold="1" page="1" pageScale="1" pageWidth="850" pageHeight="1100" math="0" shadow="0">
      <root>
        <mxCell id="0" />
        <mxCell id="1" parent="0" />
        <mxCell id="fncrMPx4JRAhufwK-6wC-1" value="FA" style="rounded=0;whiteSpace=wrap;html=1;fontSize=20;" vertex="1" parent="1">
          <mxGeometry x="520" y="-1000" width="120" height="60" as="geometry" />
        </mxCell>
        <mxCell id="fncrMPx4JRAhufwK-6wC-2" value="" style="endArrow=none;html=1;exitX=0.75;exitY=0;exitDx=0;exitDy=0;" edge="1" parent="1" source="fncrMPx4JRAhufwK-6wC-1">
          <mxGeometry width="50" height="50" relative="1" as="geometry">
            <mxPoint x="640" y="-1030" as="sourcePoint" />
            <mxPoint x="610" y="-1030" as="targetPoint" />
          </mxGeometry>
        </mxCell>
        <mxCell id="fncrMPx4JRAhufwK-6wC-3" value="" style="endArrow=none;html=1;exitX=0.5;exitY=0;exitDx=0;exitDy=0;" edge="1" parent="1" source="fncrMPx4JRAhufwK-6wC-1">
          <mxGeometry width="50" height="50" relative="1" as="geometry">
            <mxPoint x="620" y="-1060" as="sourcePoint" />
            <mxPoint x="580" y="-1050" as="targetPoint" />
          </mxGeometry>
        </mxCell>
        <mxCell id="fncrMPx4JRAhufwK-6wC-4" value="" style="endArrow=none;html=1;exitX=0.25;exitY=0;exitDx=0;exitDy=0;" edge="1" parent="1" source="fncrMPx4JRAhufwK-6wC-1">
          <mxGeometry width="50" height="50" relative="1" as="geometry">
            <mxPoint x="600" y="-840" as="sourcePoint" />
            <mxPoint x="550" y="-1080" as="targetPoint" />
          </mxGeometry>
        </mxCell>
        <mxCell id="fncrMPx4JRAhufwK-6wC-5" value="HA" style="rounded=0;whiteSpace=wrap;html=1;fontSize=20;" vertex="1" parent="1">
          <mxGeometry x="520" y="-840" width="120" height="60" as="geometry" />
        </mxCell>
        <mxCell id="fncrMPx4JRAhufwK-6wC-6" value="HA" style="rounded=0;whiteSpace=wrap;html=1;fontSize=20;" vertex="1" parent="1">
          <mxGeometry x="520" y="-680" width="120" height="60" as="geometry" />
        </mxCell>
        <mxCell id="fncrMPx4JRAhufwK-6wC-7" style="edgeStyle=orthogonalEdgeStyle;rounded=0;orthogonalLoop=1;jettySize=auto;html=1;exitX=0.75;exitY=1;exitDx=0;exitDy=0;" edge="1" parent="1" source="fncrMPx4JRAhufwK-6wC-8">
          <mxGeometry relative="1" as="geometry">
            <mxPoint x="610" y="-280" as="targetPoint" />
          </mxGeometry>
        </mxCell>
        <mxCell id="fncrMPx4JRAhufwK-6wC-8" value="HA" style="rounded=0;whiteSpace=wrap;html=1;fontSize=20;" vertex="1" parent="1">
          <mxGeometry x="520" y="-520" width="120" height="60" as="geometry" />
        </mxCell>
        <mxCell id="fncrMPx4JRAhufwK-6wC-9" value="" style="endArrow=none;html=1;exitX=0.75;exitY=0;exitDx=0;exitDy=0;entryX=0.75;entryY=1;entryDx=0;entryDy=0;" edge="1" parent="1" source="fncrMPx4JRAhufwK-6wC-5" target="fncrMPx4JRAhufwK-6wC-1">
          <mxGeometry width="50" height="50" relative="1" as="geometry">
            <mxPoint x="730" y="-830" as="sourcePoint" />
            <mxPoint x="780" y="-880" as="targetPoint" />
          </mxGeometry>
        </mxCell>
        <mxCell id="fncrMPx4JRAhufwK-6wC-10" value="" style="endArrow=none;html=1;exitX=0.75;exitY=0;exitDx=0;exitDy=0;entryX=0.75;entryY=1;entryDx=0;entryDy=0;" edge="1" parent="1">
          <mxGeometry width="50" height="50" relative="1" as="geometry">
            <mxPoint x="610" y="-680" as="sourcePoint" />
            <mxPoint x="610" y="-780" as="targetPoint" />
          </mxGeometry>
        </mxCell>
        <mxCell id="fncrMPx4JRAhufwK-6wC-11" value="" style="endArrow=none;html=1;exitX=0.75;exitY=0;exitDx=0;exitDy=0;entryX=0.75;entryY=1;entryDx=0;entryDy=0;" edge="1" parent="1">
          <mxGeometry width="50" height="50" relative="1" as="geometry">
            <mxPoint x="610" y="-520" as="sourcePoint" />
            <mxPoint x="610" y="-620" as="targetPoint" />
          </mxGeometry>
        </mxCell>
        <mxCell id="fncrMPx4JRAhufwK-6wC-12" value="" style="endArrow=none;html=1;exitX=0.75;exitY=0;exitDx=0;exitDy=0;" edge="1" parent="1">
          <mxGeometry width="50" height="50" relative="1" as="geometry">
            <mxPoint x="550" y="-840" as="sourcePoint" />
            <mxPoint x="550" y="-870" as="targetPoint" />
          </mxGeometry>
        </mxCell>
        <mxCell id="fncrMPx4JRAhufwK-6wC-13" value="" style="endArrow=none;html=1;exitX=0.75;exitY=0;exitDx=0;exitDy=0;" edge="1" parent="1">
          <mxGeometry width="50" height="50" relative="1" as="geometry">
            <mxPoint x="550" y="-680" as="sourcePoint" />
            <mxPoint x="550" y="-710" as="targetPoint" />
          </mxGeometry>
        </mxCell>
        <mxCell id="fncrMPx4JRAhufwK-6wC-14" value="" style="endArrow=none;html=1;exitX=0.75;exitY=0;exitDx=0;exitDy=0;" edge="1" parent="1">
          <mxGeometry width="50" height="50" relative="1" as="geometry">
            <mxPoint x="550" y="-520" as="sourcePoint" />
            <mxPoint x="550" y="-550" as="targetPoint" />
          </mxGeometry>
        </mxCell>
        <mxCell id="fncrMPx4JRAhufwK-6wC-15" value="x(3)" style="text;html=1;align=center;verticalAlign=middle;resizable=0;points=[];autosize=1;" vertex="1" parent="1">
          <mxGeometry x="640" y="-1040" width="40" height="20" as="geometry" />
        </mxCell>
        <mxCell id="fncrMPx4JRAhufwK-6wC-16" value="x(2)" style="text;html=1;align=center;verticalAlign=middle;resizable=0;points=[];autosize=1;" vertex="1" parent="1">
          <mxGeometry x="640" y="-1060" width="40" height="20" as="geometry" />
        </mxCell>
        <mxCell id="fncrMPx4JRAhufwK-6wC-17" value="x(1)" style="text;html=1;align=center;verticalAlign=middle;resizable=0;points=[];autosize=1;" vertex="1" parent="1">
          <mxGeometry x="640" y="-1080" width="40" height="20" as="geometry" />
        </mxCell>
        <mxCell id="fncrMPx4JRAhufwK-6wC-18" value="x(4)" style="text;html=1;align=center;verticalAlign=middle;resizable=0;points=[];autosize=1;" vertex="1" parent="1">
          <mxGeometry x="640" y="-870" width="40" height="20" as="geometry" />
        </mxCell>
        <mxCell id="fncrMPx4JRAhufwK-6wC-19" value="x(5)" style="text;html=1;align=center;verticalAlign=middle;resizable=0;points=[];autosize=1;" vertex="1" parent="1">
          <mxGeometry x="640" y="-710" width="40" height="20" as="geometry" />
        </mxCell>
        <mxCell id="fncrMPx4JRAhufwK-6wC-20" value="x(6)" style="text;html=1;align=center;verticalAlign=middle;resizable=0;points=[];autosize=1;" vertex="1" parent="1">
          <mxGeometry x="640" y="-550" width="40" height="20" as="geometry" />
        </mxCell>
        <mxCell id="fncrMPx4JRAhufwK-6wC-21" value="FA" style="rounded=0;whiteSpace=wrap;html=1;fontSize=20;" vertex="1" parent="1">
          <mxGeometry x="360" y="-1000" width="120" height="60" as="geometry" />
        </mxCell>
        <mxCell id="fncrMPx4JRAhufwK-6wC-22" value="" style="endArrow=none;html=1;exitX=0.75;exitY=0;exitDx=0;exitDy=0;" edge="1" parent="1" source="fncrMPx4JRAhufwK-6wC-21">
          <mxGeometry width="50" height="50" relative="1" as="geometry">
            <mxPoint x="480" y="-1030" as="sourcePoint" />
            <mxPoint x="450" y="-1030" as="targetPoint" />
          </mxGeometry>
        </mxCell>
        <mxCell id="fncrMPx4JRAhufwK-6wC-23" value="" style="endArrow=none;html=1;exitX=0.5;exitY=0;exitDx=0;exitDy=0;" edge="1" parent="1" source="fncrMPx4JRAhufwK-6wC-21">
          <mxGeometry width="50" height="50" relative="1" as="geometry">
            <mxPoint x="460" y="-1060" as="sourcePoint" />
            <mxPoint x="420" y="-1050" as="targetPoint" />
          </mxGeometry>
        </mxCell>
        <mxCell id="fncrMPx4JRAhufwK-6wC-24" value="" style="endArrow=none;html=1;exitX=0.25;exitY=0;exitDx=0;exitDy=0;" edge="1" parent="1" source="fncrMPx4JRAhufwK-6wC-21">
          <mxGeometry width="50" height="50" relative="1" as="geometry">
            <mxPoint x="440" y="-840" as="sourcePoint" />
            <mxPoint x="390" y="-1080" as="targetPoint" />
          </mxGeometry>
        </mxCell>
        <mxCell id="fncrMPx4JRAhufwK-6wC-25" value="FA" style="rounded=0;whiteSpace=wrap;html=1;fontSize=20;" vertex="1" parent="1">
          <mxGeometry x="200" y="-1000" width="120" height="60" as="geometry" />
        </mxCell>
        <mxCell id="fncrMPx4JRAhufwK-6wC-26" value="" style="endArrow=none;html=1;exitX=0.75;exitY=0;exitDx=0;exitDy=0;" edge="1" parent="1" source="fncrMPx4JRAhufwK-6wC-25">
          <mxGeometry width="50" height="50" relative="1" as="geometry">
            <mxPoint x="320" y="-1030" as="sourcePoint" />
            <mxPoint x="290" y="-1030" as="targetPoint" />
          </mxGeometry>
        </mxCell>
        <mxCell id="fncrMPx4JRAhufwK-6wC-27" value="" style="endArrow=none;html=1;exitX=0.5;exitY=0;exitDx=0;exitDy=0;" edge="1" parent="1" source="fncrMPx4JRAhufwK-6wC-25">
          <mxGeometry width="50" height="50" relative="1" as="geometry">
            <mxPoint x="300" y="-1060" as="sourcePoint" />
            <mxPoint x="260" y="-1050" as="targetPoint" />
          </mxGeometry>
        </mxCell>
        <mxCell id="fncrMPx4JRAhufwK-6wC-28" value="" style="endArrow=none;html=1;exitX=0.25;exitY=0;exitDx=0;exitDy=0;" edge="1" parent="1" source="fncrMPx4JRAhufwK-6wC-25">
          <mxGeometry width="50" height="50" relative="1" as="geometry">
            <mxPoint x="280" y="-840" as="sourcePoint" />
            <mxPoint x="230" y="-1080" as="targetPoint" />
          </mxGeometry>
        </mxCell>
        <mxCell id="fncrMPx4JRAhufwK-6wC-29" value="FA" style="rounded=0;whiteSpace=wrap;html=1;fontSize=20;" vertex="1" parent="1">
          <mxGeometry x="40" y="-1000" width="120" height="60" as="geometry" />
        </mxCell>
        <mxCell id="fncrMPx4JRAhufwK-6wC-30" value="" style="endArrow=none;html=1;exitX=0.75;exitY=0;exitDx=0;exitDy=0;" edge="1" parent="1" source="fncrMPx4JRAhufwK-6wC-29">
          <mxGeometry width="50" height="50" relative="1" as="geometry">
            <mxPoint x="160" y="-1030" as="sourcePoint" />
            <mxPoint x="130" y="-1030" as="targetPoint" />
          </mxGeometry>
        </mxCell>
        <mxCell id="fncrMPx4JRAhufwK-6wC-31" value="" style="endArrow=none;html=1;exitX=0.5;exitY=0;exitDx=0;exitDy=0;" edge="1" parent="1" source="fncrMPx4JRAhufwK-6wC-29">
          <mxGeometry width="50" height="50" relative="1" as="geometry">
            <mxPoint x="140" y="-1060" as="sourcePoint" />
            <mxPoint x="100" y="-1050" as="targetPoint" />
          </mxGeometry>
        </mxCell>
        <mxCell id="fncrMPx4JRAhufwK-6wC-32" value="" style="endArrow=none;html=1;exitX=0.25;exitY=0;exitDx=0;exitDy=0;" edge="1" parent="1" source="fncrMPx4JRAhufwK-6wC-29">
          <mxGeometry width="50" height="50" relative="1" as="geometry">
            <mxPoint x="120" y="-840" as="sourcePoint" />
            <mxPoint x="70" y="-1080" as="targetPoint" />
          </mxGeometry>
        </mxCell>
        <mxCell id="fncrMPx4JRAhufwK-6wC-33" value="FA" style="rounded=0;whiteSpace=wrap;html=1;fontSize=20;" vertex="1" parent="1">
          <mxGeometry x="-120" y="-1000" width="120" height="60" as="geometry" />
        </mxCell>
        <mxCell id="fncrMPx4JRAhufwK-6wC-34" value="" style="endArrow=none;html=1;exitX=0.75;exitY=0;exitDx=0;exitDy=0;" edge="1" parent="1" source="fncrMPx4JRAhufwK-6wC-33">
          <mxGeometry width="50" height="50" relative="1" as="geometry">
            <mxPoint y="-1030" as="sourcePoint" />
            <mxPoint x="-30" y="-1030" as="targetPoint" />
          </mxGeometry>
        </mxCell>
        <mxCell id="fncrMPx4JRAhufwK-6wC-35" value="" style="endArrow=none;html=1;exitX=0.5;exitY=0;exitDx=0;exitDy=0;" edge="1" parent="1" source="fncrMPx4JRAhufwK-6wC-33">
          <mxGeometry width="50" height="50" relative="1" as="geometry">
            <mxPoint x="-20" y="-1060" as="sourcePoint" />
            <mxPoint x="-60" y="-1050" as="targetPoint" />
          </mxGeometry>
        </mxCell>
        <mxCell id="fncrMPx4JRAhufwK-6wC-36" value="" style="endArrow=none;html=1;exitX=0.25;exitY=0;exitDx=0;exitDy=0;" edge="1" parent="1" source="fncrMPx4JRAhufwK-6wC-33">
          <mxGeometry width="50" height="50" relative="1" as="geometry">
            <mxPoint x="-40" y="-840" as="sourcePoint" />
            <mxPoint x="-90" y="-1080" as="targetPoint" />
          </mxGeometry>
        </mxCell>
        <mxCell id="fncrMPx4JRAhufwK-6wC-37" value="FA" style="rounded=0;whiteSpace=wrap;html=1;fontSize=20;" vertex="1" parent="1">
          <mxGeometry x="360" y="-840" width="120" height="60" as="geometry" />
        </mxCell>
        <mxCell id="fncrMPx4JRAhufwK-6wC-38" value="FA" style="rounded=0;whiteSpace=wrap;html=1;fontSize=20;" vertex="1" parent="1">
          <mxGeometry x="360" y="-680" width="120" height="60" as="geometry" />
        </mxCell>
        <mxCell id="fncrMPx4JRAhufwK-6wC-39" value="FA" style="rounded=0;whiteSpace=wrap;html=1;fontSize=20;" vertex="1" parent="1">
          <mxGeometry x="360" y="-520" width="120" height="60" as="geometry" />
        </mxCell>
        <mxCell id="fncrMPx4JRAhufwK-6wC-40" value="FA" style="rounded=0;whiteSpace=wrap;html=1;fontSize=20;" vertex="1" parent="1">
          <mxGeometry x="200" y="-840" width="120" height="60" as="geometry" />
        </mxCell>
        <mxCell id="fncrMPx4JRAhufwK-6wC-41" value="FA" style="rounded=0;whiteSpace=wrap;html=1;fontSize=20;" vertex="1" parent="1">
          <mxGeometry x="200" y="-680" width="120" height="60" as="geometry" />
        </mxCell>
        <mxCell id="fncrMPx4JRAhufwK-6wC-42" value="FA" style="rounded=0;whiteSpace=wrap;html=1;fontSize=20;" vertex="1" parent="1">
          <mxGeometry x="200" y="-520" width="120" height="60" as="geometry" />
        </mxCell>
        <mxCell id="fncrMPx4JRAhufwK-6wC-43" value="FA" style="rounded=0;whiteSpace=wrap;html=1;fontSize=20;" vertex="1" parent="1">
          <mxGeometry x="40" y="-840" width="120" height="60" as="geometry" />
        </mxCell>
        <mxCell id="fncrMPx4JRAhufwK-6wC-44" value="FA" style="rounded=0;whiteSpace=wrap;html=1;fontSize=20;" vertex="1" parent="1">
          <mxGeometry x="40" y="-680" width="120" height="60" as="geometry" />
        </mxCell>
        <mxCell id="fncrMPx4JRAhufwK-6wC-45" value="FA" style="rounded=0;whiteSpace=wrap;html=1;fontSize=20;" vertex="1" parent="1">
          <mxGeometry x="40" y="-520" width="120" height="60" as="geometry" />
        </mxCell>
        <mxCell id="fncrMPx4JRAhufwK-6wC-46" value="FA" style="rounded=0;whiteSpace=wrap;html=1;fontSize=20;" vertex="1" parent="1">
          <mxGeometry x="-120" y="-840" width="120" height="60" as="geometry" />
        </mxCell>
        <mxCell id="fncrMPx4JRAhufwK-6wC-47" value="FA" style="rounded=0;whiteSpace=wrap;html=1;fontSize=20;" vertex="1" parent="1">
          <mxGeometry x="-120" y="-680" width="120" height="60" as="geometry" />
        </mxCell>
        <mxCell id="fncrMPx4JRAhufwK-6wC-48" value="FA" style="rounded=0;whiteSpace=wrap;html=1;fontSize=20;" vertex="1" parent="1">
          <mxGeometry x="-120" y="-520" width="120" height="60" as="geometry" />
        </mxCell>
        <mxCell id="fncrMPx4JRAhufwK-6wC-49" value="HA" style="rounded=0;whiteSpace=wrap;html=1;fontSize=20;" vertex="1" parent="1">
          <mxGeometry x="-280" y="-680" width="120" height="60" as="geometry" />
        </mxCell>
        <mxCell id="fncrMPx4JRAhufwK-6wC-50" value="HA" style="rounded=0;whiteSpace=wrap;html=1;fontSize=20;" vertex="1" parent="1">
          <mxGeometry x="-280" y="-520" width="120" height="60" as="geometry" />
        </mxCell>
        <mxCell id="fncrMPx4JRAhufwK-6wC-51" value="CPA" style="rounded=0;whiteSpace=wrap;html=1;fontSize=20;" vertex="1" parent="1">
          <mxGeometry x="-400" y="-400" width="960" height="80" as="geometry" />
        </mxCell>
        <mxCell id="fncrMPx4JRAhufwK-6wC-52" value="" style="endArrow=none;html=1;fontSize=20;entryX=0.25;entryY=1;entryDx=0;entryDy=0;exitX=0.75;exitY=0;exitDx=0;exitDy=0;fillColor=#d80073;strokeColor=#A50040;strokeWidth=4;" edge="1" parent="1" source="fncrMPx4JRAhufwK-6wC-37" target="fncrMPx4JRAhufwK-6wC-1">
          <mxGeometry width="50" height="50" relative="1" as="geometry">
            <mxPoint x="490" y="-870" as="sourcePoint" />
            <mxPoint x="540" y="-920" as="targetPoint" />
            <Array as="points">
              <mxPoint x="450" y="-860" />
              <mxPoint x="550" y="-920" />
            </Array>
          </mxGeometry>
        </mxCell>
        <mxCell id="fncrMPx4JRAhufwK-6wC-53" value="" style="endArrow=none;html=1;fontSize=20;entryX=0.75;entryY=1;entryDx=0;entryDy=0;exitX=0.5;exitY=0;exitDx=0;exitDy=0;" edge="1" parent="1" source="fncrMPx4JRAhufwK-6wC-37" target="fncrMPx4JRAhufwK-6wC-21">
          <mxGeometry width="50" height="50" relative="1" as="geometry">
            <mxPoint x="330" y="-850" as="sourcePoint" />
            <mxPoint x="380" y="-900" as="targetPoint" />
            <Array as="points">
              <mxPoint x="420" y="-860" />
              <mxPoint x="450" y="-920" />
            </Array>
          </mxGeometry>
        </mxCell>
        <mxCell id="fncrMPx4JRAhufwK-6wC-54" value="" style="endArrow=none;html=1;fontSize=20;entryX=0.25;entryY=1;entryDx=0;entryDy=0;exitX=0.75;exitY=0;exitDx=0;exitDy=0;" edge="1" parent="1" source="fncrMPx4JRAhufwK-6wC-40" target="fncrMPx4JRAhufwK-6wC-21">
          <mxGeometry width="50" height="50" relative="1" as="geometry">
            <mxPoint x="350" y="-870" as="sourcePoint" />
            <mxPoint x="400" y="-920" as="targetPoint" />
            <Array as="points">
              <mxPoint x="290" y="-860" />
              <mxPoint x="390" y="-920" />
            </Array>
          </mxGeometry>
        </mxCell>
        <mxCell id="fncrMPx4JRAhufwK-6wC-55" value="" style="endArrow=none;html=1;exitX=0.75;exitY=0;exitDx=0;exitDy=0;" edge="1" parent="1">
          <mxGeometry width="50" height="50" relative="1" as="geometry">
            <mxPoint x="390" y="-840" as="sourcePoint" />
            <mxPoint x="390" y="-870" as="targetPoint" />
          </mxGeometry>
        </mxCell>
        <mxCell id="fncrMPx4JRAhufwK-6wC-56" value="" style="endArrow=none;html=1;exitX=0.75;exitY=0;exitDx=0;exitDy=0;" edge="1" parent="1">
          <mxGeometry width="50" height="50" relative="1" as="geometry">
            <mxPoint x="229.40999999999985" y="-840" as="sourcePoint" />
            <mxPoint x="229.40999999999985" y="-870" as="targetPoint" />
          </mxGeometry>
        </mxCell>
        <mxCell id="fncrMPx4JRAhufwK-6wC-57" value="" style="endArrow=none;html=1;fontSize=20;entryX=0.25;entryY=1;entryDx=0;entryDy=0;exitX=0.75;exitY=0;exitDx=0;exitDy=0;" edge="1" parent="1">
          <mxGeometry width="50" height="50" relative="1" as="geometry">
            <mxPoint x="129.40999999999985" y="-840" as="sourcePoint" />
            <mxPoint x="229.40999999999985" y="-940" as="targetPoint" />
            <Array as="points">
              <mxPoint x="129.41000000000003" y="-860" />
              <mxPoint x="229.41000000000003" y="-920" />
            </Array>
          </mxGeometry>
        </mxCell>
        <mxCell id="fncrMPx4JRAhufwK-6wC-58" value="" style="endArrow=none;html=1;fontSize=20;entryX=0.75;entryY=1;entryDx=0;entryDy=0;exitX=0.5;exitY=0;exitDx=0;exitDy=0;" edge="1" parent="1">
          <mxGeometry width="50" height="50" relative="1" as="geometry">
            <mxPoint x="99.40999999999985" y="-840" as="sourcePoint" />
            <mxPoint x="129.40999999999985" y="-940" as="targetPoint" />
            <Array as="points">
              <mxPoint x="99.41000000000003" y="-860" />
              <mxPoint x="129.41000000000003" y="-920" />
            </Array>
          </mxGeometry>
        </mxCell>
        <mxCell id="fncrMPx4JRAhufwK-6wC-59" value="" style="endArrow=none;html=1;fontSize=20;entryX=0.25;entryY=1;entryDx=0;entryDy=0;exitX=0.75;exitY=0;exitDx=0;exitDy=0;" edge="1" parent="1">
          <mxGeometry width="50" height="50" relative="1" as="geometry">
            <mxPoint x="-30.590000000000146" y="-840" as="sourcePoint" />
            <mxPoint x="69.40999999999985" y="-940" as="targetPoint" />
            <Array as="points">
              <mxPoint x="-30.589999999999975" y="-860" />
              <mxPoint x="69.41000000000003" y="-920" />
            </Array>
          </mxGeometry>
        </mxCell>
        <mxCell id="fncrMPx4JRAhufwK-6wC-60" value="" style="endArrow=none;html=1;exitX=0.75;exitY=0;exitDx=0;exitDy=0;" edge="1" parent="1">
          <mxGeometry width="50" height="50" relative="1" as="geometry">
            <mxPoint x="69.40999999999985" y="-840" as="sourcePoint" />
            <mxPoint x="69.40999999999985" y="-870" as="targetPoint" />
          </mxGeometry>
        </mxCell>
        <mxCell id="fncrMPx4JRAhufwK-6wC-61" value="" style="endArrow=none;html=1;fontSize=20;entryX=0.75;entryY=1;entryDx=0;entryDy=0;exitX=0.5;exitY=0;exitDx=0;exitDy=0;" edge="1" parent="1">
          <mxGeometry width="50" height="50" relative="1" as="geometry">
            <mxPoint x="260" y="-840" as="sourcePoint" />
            <mxPoint x="290" y="-940" as="targetPoint" />
            <Array as="points">
              <mxPoint x="260" y="-860" />
              <mxPoint x="290" y="-920" />
            </Array>
          </mxGeometry>
        </mxCell>
        <mxCell id="fncrMPx4JRAhufwK-6wC-62" value="" style="endArrow=none;html=1;fontSize=20;entryX=0.75;entryY=1;entryDx=0;entryDy=0;exitX=0.5;exitY=0;exitDx=0;exitDy=0;" edge="1" parent="1">
          <mxGeometry width="50" height="50" relative="1" as="geometry">
            <mxPoint x="-60" y="-840" as="sourcePoint" />
            <mxPoint x="-30" y="-940" as="targetPoint" />
            <Array as="points">
              <mxPoint x="-59.99999999999997" y="-860" />
              <mxPoint x="-29.99999999999997" y="-920" />
            </Array>
          </mxGeometry>
        </mxCell>
        <mxCell id="fncrMPx4JRAhufwK-6wC-63" value="" style="endArrow=none;html=1;exitX=0.75;exitY=0;exitDx=0;exitDy=0;" edge="1" parent="1">
          <mxGeometry width="50" height="50" relative="1" as="geometry">
            <mxPoint x="-90" y="-840" as="sourcePoint" />
            <mxPoint x="-90" y="-870" as="targetPoint" />
          </mxGeometry>
        </mxCell>
        <mxCell id="fncrMPx4JRAhufwK-6wC-64" value="" style="endArrow=none;html=1;fontSize=20;entryX=0.25;entryY=1;entryDx=0;entryDy=0;exitX=0.75;exitY=0;exitDx=0;exitDy=0;" edge="1" parent="1">
          <mxGeometry width="50" height="50" relative="1" as="geometry">
            <mxPoint x="450" y="-680" as="sourcePoint" />
            <mxPoint x="550" y="-780" as="targetPoint" />
            <Array as="points">
              <mxPoint x="450" y="-700" />
              <mxPoint x="550" y="-760" />
            </Array>
          </mxGeometry>
        </mxCell>
        <mxCell id="fncrMPx4JRAhufwK-6wC-65" value="" style="endArrow=none;html=1;fontSize=20;entryX=0.25;entryY=1;entryDx=0;entryDy=0;exitX=0.75;exitY=0;exitDx=0;exitDy=0;" edge="1" parent="1">
          <mxGeometry width="50" height="50" relative="1" as="geometry">
            <mxPoint x="450" y="-520" as="sourcePoint" />
            <mxPoint x="550" y="-620" as="targetPoint" />
            <Array as="points">
              <mxPoint x="450" y="-540" />
              <mxPoint x="550" y="-600" />
            </Array>
          </mxGeometry>
        </mxCell>
        <mxCell id="fncrMPx4JRAhufwK-6wC-66" value="" style="endArrow=none;html=1;fontSize=20;entryX=0.75;entryY=1;entryDx=0;entryDy=0;exitX=0.5;exitY=0;exitDx=0;exitDy=0;fillColor=#d80073;strokeColor=#A50040;strokeWidth=4;" edge="1" parent="1">
          <mxGeometry width="50" height="50" relative="1" as="geometry">
            <mxPoint x="420" y="-680" as="sourcePoint" />
            <mxPoint x="450" y="-780" as="targetPoint" />
            <Array as="points">
              <mxPoint x="420" y="-700" />
              <mxPoint x="450" y="-760" />
            </Array>
          </mxGeometry>
        </mxCell>
        <mxCell id="fncrMPx4JRAhufwK-6wC-67" value="" style="endArrow=none;html=1;exitX=0.75;exitY=0;exitDx=0;exitDy=0;" edge="1" parent="1">
          <mxGeometry width="50" height="50" relative="1" as="geometry">
            <mxPoint x="390" y="-680" as="sourcePoint" />
            <mxPoint x="390" y="-710" as="targetPoint" />
          </mxGeometry>
        </mxCell>
        <mxCell id="fncrMPx4JRAhufwK-6wC-68" value="" style="endArrow=none;html=1;fontSize=20;entryX=0.75;entryY=1;entryDx=0;entryDy=0;exitX=0.5;exitY=0;exitDx=0;exitDy=0;fillColor=#d80073;strokeColor=#A50040;strokeWidth=4;" edge="1" parent="1">
          <mxGeometry width="50" height="50" relative="1" as="geometry">
            <mxPoint x="420" y="-520" as="sourcePoint" />
            <mxPoint x="450" y="-620" as="targetPoint" />
            <Array as="points">
              <mxPoint x="420" y="-540" />
              <mxPoint x="450" y="-600" />
            </Array>
          </mxGeometry>
        </mxCell>
        <mxCell id="fncrMPx4JRAhufwK-6wC-69" value="" style="endArrow=none;html=1;exitX=0.75;exitY=0;exitDx=0;exitDy=0;" edge="1" parent="1">
          <mxGeometry width="50" height="50" relative="1" as="geometry">
            <mxPoint x="390" y="-520" as="sourcePoint" />
            <mxPoint x="390" y="-550" as="targetPoint" />
          </mxGeometry>
        </mxCell>
        <mxCell id="fncrMPx4JRAhufwK-6wC-70" value="" style="endArrow=none;html=1;fontSize=20;entryX=0.75;entryY=1;entryDx=0;entryDy=0;fillColor=#d80073;strokeColor=#A50040;strokeWidth=4;" edge="1" parent="1" target="fncrMPx4JRAhufwK-6wC-39">
          <mxGeometry width="50" height="50" relative="1" as="geometry">
            <mxPoint x="450" y="-400" as="sourcePoint" />
            <mxPoint x="410" y="-430" as="targetPoint" />
          </mxGeometry>
        </mxCell>
        <mxCell id="fncrMPx4JRAhufwK-6wC-71" value="" style="endArrow=none;html=1;fontSize=20;entryX=0.25;entryY=1;entryDx=0;entryDy=0;exitX=0.917;exitY=0;exitDx=0;exitDy=0;exitPerimeter=0;" edge="1" parent="1" source="fncrMPx4JRAhufwK-6wC-51" target="fncrMPx4JRAhufwK-6wC-8">
          <mxGeometry width="50" height="50" relative="1" as="geometry">
            <mxPoint x="520" y="-400" as="sourcePoint" />
            <mxPoint x="570" y="-450" as="targetPoint" />
            <Array as="points">
              <mxPoint x="480" y="-420" />
              <mxPoint x="550" y="-440" />
            </Array>
          </mxGeometry>
        </mxCell>
        <mxCell id="fncrMPx4JRAhufwK-6wC-72" value="" style="endArrow=none;html=1;fontSize=20;entryX=0.75;entryY=1;entryDx=0;entryDy=0;" edge="1" parent="1">
          <mxGeometry width="50" height="50" relative="1" as="geometry">
            <mxPoint x="290" y="-400" as="sourcePoint" />
            <mxPoint x="290" y="-460" as="targetPoint" />
          </mxGeometry>
        </mxCell>
        <mxCell id="fncrMPx4JRAhufwK-6wC-73" value="" style="endArrow=none;html=1;fontSize=20;entryX=0.25;entryY=1;entryDx=0;entryDy=0;exitX=0.917;exitY=0;exitDx=0;exitDy=0;exitPerimeter=0;" edge="1" parent="1">
          <mxGeometry width="50" height="50" relative="1" as="geometry">
            <mxPoint x="320.3200000000006" y="-400" as="sourcePoint" />
            <mxPoint x="390" y="-460" as="targetPoint" />
            <Array as="points">
              <mxPoint x="320" y="-420" />
              <mxPoint x="390" y="-440" />
            </Array>
          </mxGeometry>
        </mxCell>
        <mxCell id="fncrMPx4JRAhufwK-6wC-74" value="" style="endArrow=none;html=1;fontSize=20;entryX=0.75;entryY=1;entryDx=0;entryDy=0;" edge="1" parent="1">
          <mxGeometry width="50" height="50" relative="1" as="geometry">
            <mxPoint x="130" y="-400" as="sourcePoint" />
            <mxPoint x="130" y="-460" as="targetPoint" />
          </mxGeometry>
        </mxCell>
        <mxCell id="fncrMPx4JRAhufwK-6wC-75" value="" style="endArrow=none;html=1;fontSize=20;entryX=0.25;entryY=1;entryDx=0;entryDy=0;exitX=0.917;exitY=0;exitDx=0;exitDy=0;exitPerimeter=0;" edge="1" parent="1">
          <mxGeometry width="50" height="50" relative="1" as="geometry">
            <mxPoint x="160.32000000000062" y="-400" as="sourcePoint" />
            <mxPoint x="230" y="-460" as="targetPoint" />
            <Array as="points">
              <mxPoint x="160" y="-420" />
              <mxPoint x="230" y="-440" />
            </Array>
          </mxGeometry>
        </mxCell>
        <mxCell id="fncrMPx4JRAhufwK-6wC-76" value="" style="endArrow=none;html=1;fontSize=20;entryX=0.75;entryY=1;entryDx=0;entryDy=0;" edge="1" parent="1">
          <mxGeometry width="50" height="50" relative="1" as="geometry">
            <mxPoint x="-30" y="-400" as="sourcePoint" />
            <mxPoint x="-30" y="-460" as="targetPoint" />
          </mxGeometry>
        </mxCell>
        <mxCell id="fncrMPx4JRAhufwK-6wC-77" value="" style="endArrow=none;html=1;fontSize=20;entryX=0.25;entryY=1;entryDx=0;entryDy=0;exitX=0.917;exitY=0;exitDx=0;exitDy=0;exitPerimeter=0;" edge="1" parent="1">
          <mxGeometry width="50" height="50" relative="1" as="geometry">
            <mxPoint x="0.32000000000061846" y="-400" as="sourcePoint" />
            <mxPoint x="70" y="-460" as="targetPoint" />
            <Array as="points">
              <mxPoint y="-420" />
              <mxPoint x="70" y="-440" />
            </Array>
          </mxGeometry>
        </mxCell>
        <mxCell id="fncrMPx4JRAhufwK-6wC-78" value="" style="endArrow=none;html=1;fontSize=20;entryX=0.75;entryY=1;entryDx=0;entryDy=0;" edge="1" parent="1">
          <mxGeometry width="50" height="50" relative="1" as="geometry">
            <mxPoint x="-190" y="-400" as="sourcePoint" />
            <mxPoint x="-190" y="-460" as="targetPoint" />
          </mxGeometry>
        </mxCell>
        <mxCell id="fncrMPx4JRAhufwK-6wC-79" value="" style="endArrow=none;html=1;fontSize=20;entryX=0.25;entryY=1;entryDx=0;entryDy=0;exitX=0.917;exitY=0;exitDx=0;exitDy=0;exitPerimeter=0;" edge="1" parent="1">
          <mxGeometry width="50" height="50" relative="1" as="geometry">
            <mxPoint x="-159.67999999999938" y="-400" as="sourcePoint" />
            <mxPoint x="-90" y="-460" as="targetPoint" />
            <Array as="points">
              <mxPoint x="-160" y="-420" />
              <mxPoint x="-90" y="-440" />
            </Array>
          </mxGeometry>
        </mxCell>
        <mxCell id="fncrMPx4JRAhufwK-6wC-80" value="" style="endArrow=none;html=1;fontSize=20;entryX=0.25;entryY=1;entryDx=0;entryDy=0;exitX=0.917;exitY=0;exitDx=0;exitDy=0;exitPerimeter=0;" edge="1" parent="1">
          <mxGeometry width="50" height="50" relative="1" as="geometry">
            <mxPoint x="-319.6799999999994" y="-400" as="sourcePoint" />
            <mxPoint x="-250" y="-460" as="targetPoint" />
            <Array as="points">
              <mxPoint x="-320" y="-420" />
              <mxPoint x="-250" y="-440" />
            </Array>
          </mxGeometry>
        </mxCell>
        <mxCell id="fncrMPx4JRAhufwK-6wC-81" value="" style="endArrow=none;html=1;fontSize=20;entryX=0.75;entryY=1;entryDx=0;entryDy=0;exitX=0.5;exitY=0;exitDx=0;exitDy=0;" edge="1" parent="1">
          <mxGeometry width="50" height="50" relative="1" as="geometry">
            <mxPoint x="260" y="-680" as="sourcePoint" />
            <mxPoint x="290" y="-780" as="targetPoint" />
            <Array as="points">
              <mxPoint x="260" y="-700" />
              <mxPoint x="290" y="-760" />
            </Array>
          </mxGeometry>
        </mxCell>
        <mxCell id="fncrMPx4JRAhufwK-6wC-82" value="" style="endArrow=none;html=1;exitX=0.75;exitY=0;exitDx=0;exitDy=0;" edge="1" parent="1">
          <mxGeometry width="50" height="50" relative="1" as="geometry">
            <mxPoint x="230" y="-680" as="sourcePoint" />
            <mxPoint x="230" y="-710" as="targetPoint" />
          </mxGeometry>
        </mxCell>
        <mxCell id="fncrMPx4JRAhufwK-6wC-83" value="" style="endArrow=none;html=1;fontSize=20;entryX=0.75;entryY=1;entryDx=0;entryDy=0;exitX=0.5;exitY=0;exitDx=0;exitDy=0;" edge="1" parent="1">
          <mxGeometry width="50" height="50" relative="1" as="geometry">
            <mxPoint x="100" y="-680" as="sourcePoint" />
            <mxPoint x="130" y="-780" as="targetPoint" />
            <Array as="points">
              <mxPoint x="100" y="-700" />
              <mxPoint x="130" y="-760" />
            </Array>
          </mxGeometry>
        </mxCell>
        <mxCell id="fncrMPx4JRAhufwK-6wC-84" value="" style="endArrow=none;html=1;exitX=0.75;exitY=0;exitDx=0;exitDy=0;" edge="1" parent="1">
          <mxGeometry width="50" height="50" relative="1" as="geometry">
            <mxPoint x="70" y="-680" as="sourcePoint" />
            <mxPoint x="70" y="-710" as="targetPoint" />
          </mxGeometry>
        </mxCell>
        <mxCell id="fncrMPx4JRAhufwK-6wC-85" value="" style="endArrow=none;html=1;fontSize=20;entryX=0.75;entryY=1;entryDx=0;entryDy=0;exitX=0.5;exitY=0;exitDx=0;exitDy=0;" edge="1" parent="1">
          <mxGeometry width="50" height="50" relative="1" as="geometry">
            <mxPoint x="-60" y="-680" as="sourcePoint" />
            <mxPoint x="-30" y="-780" as="targetPoint" />
            <Array as="points">
              <mxPoint x="-60" y="-700" />
              <mxPoint x="-30" y="-760" />
            </Array>
          </mxGeometry>
        </mxCell>
        <mxCell id="fncrMPx4JRAhufwK-6wC-86" value="" style="endArrow=none;html=1;exitX=0.75;exitY=0;exitDx=0;exitDy=0;" edge="1" parent="1">
          <mxGeometry width="50" height="50" relative="1" as="geometry">
            <mxPoint x="-90" y="-680" as="sourcePoint" />
            <mxPoint x="-90" y="-710" as="targetPoint" />
          </mxGeometry>
        </mxCell>
        <mxCell id="fncrMPx4JRAhufwK-6wC-87" value="" style="endArrow=none;html=1;fontSize=20;entryX=0.25;entryY=1;entryDx=0;entryDy=0;exitX=0.75;exitY=0;exitDx=0;exitDy=0;" edge="1" parent="1">
          <mxGeometry width="50" height="50" relative="1" as="geometry">
            <mxPoint x="290" y="-680" as="sourcePoint" />
            <mxPoint x="390" y="-780" as="targetPoint" />
            <Array as="points">
              <mxPoint x="290" y="-700" />
              <mxPoint x="390" y="-760" />
            </Array>
          </mxGeometry>
        </mxCell>
        <mxCell id="fncrMPx4JRAhufwK-6wC-88" value="" style="endArrow=none;html=1;fontSize=20;entryX=0.25;entryY=1;entryDx=0;entryDy=0;exitX=0.75;exitY=0;exitDx=0;exitDy=0;" edge="1" parent="1">
          <mxGeometry width="50" height="50" relative="1" as="geometry">
            <mxPoint x="130" y="-680" as="sourcePoint" />
            <mxPoint x="230" y="-780" as="targetPoint" />
            <Array as="points">
              <mxPoint x="130" y="-700" />
              <mxPoint x="230" y="-760" />
            </Array>
          </mxGeometry>
        </mxCell>
        <mxCell id="fncrMPx4JRAhufwK-6wC-89" value="" style="endArrow=none;html=1;fontSize=20;entryX=0.25;entryY=1;entryDx=0;entryDy=0;exitX=0.75;exitY=0;exitDx=0;exitDy=0;" edge="1" parent="1">
          <mxGeometry width="50" height="50" relative="1" as="geometry">
            <mxPoint x="-30" y="-680" as="sourcePoint" />
            <mxPoint x="70" y="-780" as="targetPoint" />
            <Array as="points">
              <mxPoint x="-30" y="-700" />
              <mxPoint x="70" y="-760" />
            </Array>
          </mxGeometry>
        </mxCell>
        <mxCell id="fncrMPx4JRAhufwK-6wC-90" value="" style="endArrow=none;html=1;fontSize=20;entryX=0.25;entryY=1;entryDx=0;entryDy=0;exitX=0.75;exitY=0;exitDx=0;exitDy=0;" edge="1" parent="1">
          <mxGeometry width="50" height="50" relative="1" as="geometry">
            <mxPoint x="-190" y="-680" as="sourcePoint" />
            <mxPoint x="-90" y="-780" as="targetPoint" />
            <Array as="points">
              <mxPoint x="-190" y="-700" />
              <mxPoint x="-90" y="-760" />
            </Array>
          </mxGeometry>
        </mxCell>
        <mxCell id="fncrMPx4JRAhufwK-6wC-91" value="" style="endArrow=none;html=1;fontSize=20;entryX=0.75;entryY=1;entryDx=0;entryDy=0;exitX=0.5;exitY=0;exitDx=0;exitDy=0;" edge="1" parent="1">
          <mxGeometry width="50" height="50" relative="1" as="geometry">
            <mxPoint x="260" y="-520" as="sourcePoint" />
            <mxPoint x="290" y="-620" as="targetPoint" />
            <Array as="points">
              <mxPoint x="260" y="-540" />
              <mxPoint x="290" y="-600" />
            </Array>
          </mxGeometry>
        </mxCell>
        <mxCell id="fncrMPx4JRAhufwK-6wC-92" value="" style="endArrow=none;html=1;exitX=0.75;exitY=0;exitDx=0;exitDy=0;" edge="1" parent="1">
          <mxGeometry width="50" height="50" relative="1" as="geometry">
            <mxPoint x="230" y="-520" as="sourcePoint" />
            <mxPoint x="230" y="-550" as="targetPoint" />
          </mxGeometry>
        </mxCell>
        <mxCell id="fncrMPx4JRAhufwK-6wC-93" value="" style="endArrow=none;html=1;fontSize=20;entryX=0.75;entryY=1;entryDx=0;entryDy=0;exitX=0.5;exitY=0;exitDx=0;exitDy=0;" edge="1" parent="1">
          <mxGeometry width="50" height="50" relative="1" as="geometry">
            <mxPoint x="100" y="-520" as="sourcePoint" />
            <mxPoint x="130" y="-620" as="targetPoint" />
            <Array as="points">
              <mxPoint x="100" y="-540" />
              <mxPoint x="130" y="-600" />
            </Array>
          </mxGeometry>
        </mxCell>
        <mxCell id="fncrMPx4JRAhufwK-6wC-94" value="" style="endArrow=none;html=1;exitX=0.75;exitY=0;exitDx=0;exitDy=0;" edge="1" parent="1">
          <mxGeometry width="50" height="50" relative="1" as="geometry">
            <mxPoint x="70" y="-520" as="sourcePoint" />
            <mxPoint x="70" y="-550" as="targetPoint" />
          </mxGeometry>
        </mxCell>
        <mxCell id="fncrMPx4JRAhufwK-6wC-95" value="" style="endArrow=none;html=1;fontSize=20;entryX=0.75;entryY=1;entryDx=0;entryDy=0;exitX=0.5;exitY=0;exitDx=0;exitDy=0;" edge="1" parent="1">
          <mxGeometry width="50" height="50" relative="1" as="geometry">
            <mxPoint x="-60" y="-520" as="sourcePoint" />
            <mxPoint x="-30" y="-620" as="targetPoint" />
            <Array as="points">
              <mxPoint x="-60" y="-540" />
              <mxPoint x="-30" y="-600" />
            </Array>
          </mxGeometry>
        </mxCell>
        <mxCell id="fncrMPx4JRAhufwK-6wC-96" value="" style="endArrow=none;html=1;exitX=0.75;exitY=0;exitDx=0;exitDy=0;" edge="1" parent="1">
          <mxGeometry width="50" height="50" relative="1" as="geometry">
            <mxPoint x="-90" y="-520" as="sourcePoint" />
            <mxPoint x="-90" y="-550" as="targetPoint" />
          </mxGeometry>
        </mxCell>
        <mxCell id="fncrMPx4JRAhufwK-6wC-97" value="" style="endArrow=none;html=1;fontSize=20;entryX=0.75;entryY=1;entryDx=0;entryDy=0;exitX=0.5;exitY=0;exitDx=0;exitDy=0;" edge="1" parent="1">
          <mxGeometry width="50" height="50" relative="1" as="geometry">
            <mxPoint x="-220" y="-520" as="sourcePoint" />
            <mxPoint x="-190" y="-620" as="targetPoint" />
            <Array as="points">
              <mxPoint x="-220" y="-540" />
              <mxPoint x="-190" y="-600" />
            </Array>
          </mxGeometry>
        </mxCell>
        <mxCell id="fncrMPx4JRAhufwK-6wC-98" value="" style="endArrow=none;html=1;exitX=0.75;exitY=0;exitDx=0;exitDy=0;" edge="1" parent="1">
          <mxGeometry width="50" height="50" relative="1" as="geometry">
            <mxPoint x="-250" y="-520" as="sourcePoint" />
            <mxPoint x="-250" y="-550" as="targetPoint" />
          </mxGeometry>
        </mxCell>
        <mxCell id="fncrMPx4JRAhufwK-6wC-99" value="" style="endArrow=none;html=1;fontSize=20;entryX=0.25;entryY=1;entryDx=0;entryDy=0;exitX=0.75;exitY=0;exitDx=0;exitDy=0;" edge="1" parent="1">
          <mxGeometry width="50" height="50" relative="1" as="geometry">
            <mxPoint x="290" y="-520" as="sourcePoint" />
            <mxPoint x="390" y="-620" as="targetPoint" />
            <Array as="points">
              <mxPoint x="290" y="-540" />
              <mxPoint x="390" y="-600" />
            </Array>
          </mxGeometry>
        </mxCell>
        <mxCell id="fncrMPx4JRAhufwK-6wC-100" value="" style="endArrow=none;html=1;fontSize=20;entryX=0.25;entryY=1;entryDx=0;entryDy=0;exitX=0.75;exitY=0;exitDx=0;exitDy=0;" edge="1" parent="1">
          <mxGeometry width="50" height="50" relative="1" as="geometry">
            <mxPoint x="130" y="-520" as="sourcePoint" />
            <mxPoint x="230" y="-620" as="targetPoint" />
            <Array as="points">
              <mxPoint x="130" y="-540" />
              <mxPoint x="230" y="-600" />
            </Array>
          </mxGeometry>
        </mxCell>
        <mxCell id="fncrMPx4JRAhufwK-6wC-101" value="" style="endArrow=none;html=1;fontSize=20;entryX=0.25;entryY=1;entryDx=0;entryDy=0;exitX=0.75;exitY=0;exitDx=0;exitDy=0;" edge="1" parent="1">
          <mxGeometry width="50" height="50" relative="1" as="geometry">
            <mxPoint x="-30" y="-520" as="sourcePoint" />
            <mxPoint x="70" y="-620" as="targetPoint" />
            <Array as="points">
              <mxPoint x="-30" y="-540" />
              <mxPoint x="70" y="-600" />
            </Array>
          </mxGeometry>
        </mxCell>
        <mxCell id="fncrMPx4JRAhufwK-6wC-102" value="" style="endArrow=none;html=1;fontSize=20;entryX=0.25;entryY=1;entryDx=0;entryDy=0;exitX=0.75;exitY=0;exitDx=0;exitDy=0;" edge="1" parent="1">
          <mxGeometry width="50" height="50" relative="1" as="geometry">
            <mxPoint x="-190" y="-520" as="sourcePoint" />
            <mxPoint x="-90" y="-620" as="targetPoint" />
            <Array as="points">
              <mxPoint x="-190" y="-540" />
              <mxPoint x="-90" y="-600" />
            </Array>
          </mxGeometry>
        </mxCell>
        <mxCell id="fncrMPx4JRAhufwK-6wC-103" value="" style="endArrow=none;html=1;fontSize=20;entryX=0.25;entryY=1;entryDx=0;entryDy=0;exitX=0.25;exitY=0;exitDx=0;exitDy=0;" edge="1" parent="1" source="fncrMPx4JRAhufwK-6wC-49" target="fncrMPx4JRAhufwK-6wC-33">
          <mxGeometry width="50" height="50" relative="1" as="geometry">
            <mxPoint x="-200" y="-810" as="sourcePoint" />
            <mxPoint x="-150" y="-860" as="targetPoint" />
            <Array as="points">
              <mxPoint x="-250" y="-800" />
              <mxPoint x="-90" y="-920" />
            </Array>
          </mxGeometry>
        </mxCell>
        <mxCell id="fncrMPx4JRAhufwK-6wC-104" value="" style="endArrow=none;html=1;fontSize=20;entryX=0.25;entryY=1;entryDx=0;entryDy=0;exitX=0.052;exitY=0;exitDx=0;exitDy=0;exitPerimeter=0;" edge="1" parent="1" source="fncrMPx4JRAhufwK-6wC-51" target="fncrMPx4JRAhufwK-6wC-49">
          <mxGeometry width="50" height="50" relative="1" as="geometry">
            <mxPoint x="-400" y="-530" as="sourcePoint" />
            <mxPoint x="-350" y="-580" as="targetPoint" />
            <Array as="points">
              <mxPoint x="-350" y="-500" />
              <mxPoint x="-250" y="-600" />
            </Array>
          </mxGeometry>
        </mxCell>
        <mxCell id="fncrMPx4JRAhufwK-6wC-105" value="" style="endArrow=classic;html=1;fontSize=20;" edge="1" parent="1">
          <mxGeometry width="50" height="50" relative="1" as="geometry">
            <mxPoint x="459.60000000000036" y="-320" as="sourcePoint" />
            <mxPoint x="459.60000000000036" y="-280" as="targetPoint" />
          </mxGeometry>
        </mxCell>
        <mxCell id="fncrMPx4JRAhufwK-6wC-106" value="" style="endArrow=classic;html=1;fontSize=20;" edge="1" parent="1">
          <mxGeometry width="50" height="50" relative="1" as="geometry">
            <mxPoint x="299.7999999999993" y="-320" as="sourcePoint" />
            <mxPoint x="299.7999999999993" y="-280" as="targetPoint" />
          </mxGeometry>
        </mxCell>
        <mxCell id="fncrMPx4JRAhufwK-6wC-107" value="" style="endArrow=classic;html=1;fontSize=20;" edge="1" parent="1">
          <mxGeometry width="50" height="50" relative="1" as="geometry">
            <mxPoint x="140" y="-320" as="sourcePoint" />
            <mxPoint x="140" y="-280" as="targetPoint" />
          </mxGeometry>
        </mxCell>
        <mxCell id="fncrMPx4JRAhufwK-6wC-108" value="" style="endArrow=classic;html=1;fontSize=20;" edge="1" parent="1">
          <mxGeometry width="50" height="50" relative="1" as="geometry">
            <mxPoint x="-20.200000000000728" y="-320" as="sourcePoint" />
            <mxPoint x="-20.200000000000728" y="-280" as="targetPoint" />
          </mxGeometry>
        </mxCell>
        <mxCell id="fncrMPx4JRAhufwK-6wC-109" value="" style="endArrow=classic;html=1;fontSize=20;" edge="1" parent="1">
          <mxGeometry width="50" height="50" relative="1" as="geometry">
            <mxPoint x="-180" y="-320" as="sourcePoint" />
            <mxPoint x="-180" y="-280" as="targetPoint" />
          </mxGeometry>
        </mxCell>
        <mxCell id="fncrMPx4JRAhufwK-6wC-110" value="" style="endArrow=classic;html=1;fontSize=20;" edge="1" parent="1">
          <mxGeometry width="50" height="50" relative="1" as="geometry">
            <mxPoint x="-340" y="-320" as="sourcePoint" />
            <mxPoint x="-340" y="-280" as="targetPoint" />
          </mxGeometry>
        </mxCell>
        <mxCell id="fncrMPx4JRAhufwK-6wC-111" value="" style="endArrow=classic;html=1;fontSize=20;exitX=0;exitY=0.5;exitDx=0;exitDy=0;" edge="1" parent="1" source="fncrMPx4JRAhufwK-6wC-51">
          <mxGeometry width="50" height="50" relative="1" as="geometry">
            <mxPoint x="-440" y="-230" as="sourcePoint" />
            <mxPoint x="-490" y="-280" as="targetPoint" />
            <Array as="points">
              <mxPoint x="-490" y="-360" />
            </Array>
          </mxGeometry>
        </mxCell>
        <mxCell id="fncrMPx4JRAhufwK-6wC-112" value="" style="endArrow=classic;startArrow=classic;html=1;fontSize=20;" edge="1" parent="1">
          <mxGeometry width="50" height="50" relative="1" as="geometry">
            <mxPoint x="-40" y="-270" as="sourcePoint" />
            <mxPoint x="630" y="-270" as="targetPoint" />
          </mxGeometry>
        </mxCell>
        <mxCell id="fncrMPx4JRAhufwK-6wC-113" value="5" style="text;html=1;align=center;verticalAlign=middle;resizable=0;points=[];autosize=1;fontSize=20;" vertex="1" parent="1">
          <mxGeometry x="280" y="-270" width="30" height="30" as="geometry" />
        </mxCell>
        <mxCell id="fncrMPx4JRAhufwK-6wC-114" value="" style="endArrow=classic;startArrow=classic;html=1;fontSize=20;" edge="1" parent="1">
          <mxGeometry width="50" height="50" relative="1" as="geometry">
            <mxPoint x="-510" y="-270" as="sourcePoint" />
            <mxPoint x="-160" y="-270" as="targetPoint" />
          </mxGeometry>
        </mxCell>
        <mxCell id="fncrMPx4JRAhufwK-6wC-115" value="3" style="text;html=1;align=center;verticalAlign=middle;resizable=0;points=[];autosize=1;fontSize=20;" vertex="1" parent="1">
          <mxGeometry x="-360" y="-270" width="30" height="30" as="geometry" />
        </mxCell>
        <mxCell id="fncrMPx4JRAhufwK-6wC-116" value="" style="endArrow=none;html=1;fontSize=20;" edge="1" parent="1">
          <mxGeometry width="50" height="50" relative="1" as="geometry">
            <mxPoint x="770" y="-90" as="sourcePoint" />
            <mxPoint x="770" y="-1120" as="targetPoint" />
          </mxGeometry>
        </mxCell>
        <mxCell id="fncrMPx4JRAhufwK-6wC-117" value="FA" style="rounded=0;whiteSpace=wrap;html=1;fontSize=20;" vertex="1" parent="1">
          <mxGeometry x="2150" y="-820" width="200" height="80" as="geometry" />
        </mxCell>
        <mxCell id="fncrMPx4JRAhufwK-6wC-118" value="" style="endArrow=none;html=1;fontSize=20;" edge="1" parent="1">
          <mxGeometry width="50" height="50" relative="1" as="geometry">
            <mxPoint x="2310" y="-820" as="sourcePoint" />
            <mxPoint x="2310" y="-850" as="targetPoint" />
          </mxGeometry>
        </mxCell>
        <mxCell id="fncrMPx4JRAhufwK-6wC-119" value="" style="endArrow=none;html=1;fontSize=20;" edge="1" parent="1">
          <mxGeometry width="50" height="50" relative="1" as="geometry">
            <mxPoint x="2270" y="-820" as="sourcePoint" />
            <mxPoint x="2270" y="-880" as="targetPoint" />
          </mxGeometry>
        </mxCell>
        <mxCell id="fncrMPx4JRAhufwK-6wC-120" value="" style="endArrow=none;html=1;fontSize=20;" edge="1" parent="1">
          <mxGeometry width="50" height="50" relative="1" as="geometry">
            <mxPoint x="2230" y="-820" as="sourcePoint" />
            <mxPoint x="2230" y="-910" as="targetPoint" />
          </mxGeometry>
        </mxCell>
        <mxCell id="fncrMPx4JRAhufwK-6wC-121" value="" style="endArrow=none;html=1;fontSize=20;" edge="1" parent="1">
          <mxGeometry width="50" height="50" relative="1" as="geometry">
            <mxPoint x="2190" y="-820" as="sourcePoint" />
            <mxPoint x="2190" y="-940" as="targetPoint" />
          </mxGeometry>
        </mxCell>
        <mxCell id="fncrMPx4JRAhufwK-6wC-122" value="FA" style="rounded=0;whiteSpace=wrap;html=1;fontSize=20;" vertex="1" parent="1">
          <mxGeometry x="1910" y="-820" width="200" height="80" as="geometry" />
        </mxCell>
        <mxCell id="fncrMPx4JRAhufwK-6wC-123" value="" style="endArrow=none;html=1;fontSize=20;" edge="1" parent="1">
          <mxGeometry width="50" height="50" relative="1" as="geometry">
            <mxPoint x="2070" y="-820" as="sourcePoint" />
            <mxPoint x="2070" y="-850" as="targetPoint" />
          </mxGeometry>
        </mxCell>
        <mxCell id="fncrMPx4JRAhufwK-6wC-124" value="" style="endArrow=none;html=1;fontSize=20;" edge="1" parent="1">
          <mxGeometry width="50" height="50" relative="1" as="geometry">
            <mxPoint x="2030" y="-820" as="sourcePoint" />
            <mxPoint x="2030" y="-880" as="targetPoint" />
          </mxGeometry>
        </mxCell>
        <mxCell id="fncrMPx4JRAhufwK-6wC-125" value="" style="endArrow=none;html=1;fontSize=20;" edge="1" parent="1">
          <mxGeometry width="50" height="50" relative="1" as="geometry">
            <mxPoint x="1990" y="-820" as="sourcePoint" />
            <mxPoint x="1990" y="-910" as="targetPoint" />
          </mxGeometry>
        </mxCell>
        <mxCell id="fncrMPx4JRAhufwK-6wC-126" value="" style="endArrow=none;html=1;fontSize=20;" edge="1" parent="1">
          <mxGeometry width="50" height="50" relative="1" as="geometry">
            <mxPoint x="1950" y="-820" as="sourcePoint" />
            <mxPoint x="1950" y="-940" as="targetPoint" />
          </mxGeometry>
        </mxCell>
        <mxCell id="fncrMPx4JRAhufwK-6wC-127" value="FA" style="rounded=0;whiteSpace=wrap;html=1;fontSize=20;" vertex="1" parent="1">
          <mxGeometry x="1670" y="-820" width="200" height="80" as="geometry" />
        </mxCell>
        <mxCell id="fncrMPx4JRAhufwK-6wC-128" value="" style="endArrow=none;html=1;fontSize=20;" edge="1" parent="1">
          <mxGeometry width="50" height="50" relative="1" as="geometry">
            <mxPoint x="1830" y="-820" as="sourcePoint" />
            <mxPoint x="1830" y="-850" as="targetPoint" />
          </mxGeometry>
        </mxCell>
        <mxCell id="fncrMPx4JRAhufwK-6wC-129" value="" style="endArrow=none;html=1;fontSize=20;" edge="1" parent="1">
          <mxGeometry width="50" height="50" relative="1" as="geometry">
            <mxPoint x="1790" y="-820" as="sourcePoint" />
            <mxPoint x="1790" y="-880" as="targetPoint" />
          </mxGeometry>
        </mxCell>
        <mxCell id="fncrMPx4JRAhufwK-6wC-130" value="" style="endArrow=none;html=1;fontSize=20;" edge="1" parent="1">
          <mxGeometry width="50" height="50" relative="1" as="geometry">
            <mxPoint x="1750" y="-820" as="sourcePoint" />
            <mxPoint x="1750" y="-910" as="targetPoint" />
          </mxGeometry>
        </mxCell>
        <mxCell id="fncrMPx4JRAhufwK-6wC-131" value="" style="endArrow=none;html=1;fontSize=20;" edge="1" parent="1">
          <mxGeometry width="50" height="50" relative="1" as="geometry">
            <mxPoint x="1710" y="-820" as="sourcePoint" />
            <mxPoint x="1710" y="-940" as="targetPoint" />
          </mxGeometry>
        </mxCell>
        <mxCell id="fncrMPx4JRAhufwK-6wC-132" value="FA" style="rounded=0;whiteSpace=wrap;html=1;fontSize=20;" vertex="1" parent="1">
          <mxGeometry x="1430" y="-820" width="200" height="80" as="geometry" />
        </mxCell>
        <mxCell id="fncrMPx4JRAhufwK-6wC-133" value="" style="endArrow=none;html=1;fontSize=20;" edge="1" parent="1">
          <mxGeometry width="50" height="50" relative="1" as="geometry">
            <mxPoint x="1590" y="-820" as="sourcePoint" />
            <mxPoint x="1590" y="-850" as="targetPoint" />
          </mxGeometry>
        </mxCell>
        <mxCell id="fncrMPx4JRAhufwK-6wC-134" value="" style="endArrow=none;html=1;fontSize=20;" edge="1" parent="1">
          <mxGeometry width="50" height="50" relative="1" as="geometry">
            <mxPoint x="1550" y="-820" as="sourcePoint" />
            <mxPoint x="1550" y="-880" as="targetPoint" />
          </mxGeometry>
        </mxCell>
        <mxCell id="fncrMPx4JRAhufwK-6wC-135" value="" style="endArrow=none;html=1;fontSize=20;" edge="1" parent="1">
          <mxGeometry width="50" height="50" relative="1" as="geometry">
            <mxPoint x="1510" y="-820" as="sourcePoint" />
            <mxPoint x="1510" y="-910" as="targetPoint" />
          </mxGeometry>
        </mxCell>
        <mxCell id="fncrMPx4JRAhufwK-6wC-136" value="" style="endArrow=none;html=1;fontSize=20;" edge="1" parent="1">
          <mxGeometry width="50" height="50" relative="1" as="geometry">
            <mxPoint x="1470" y="-820" as="sourcePoint" />
            <mxPoint x="1470" y="-940" as="targetPoint" />
          </mxGeometry>
        </mxCell>
        <mxCell id="fncrMPx4JRAhufwK-6wC-137" value="FA" style="rounded=0;whiteSpace=wrap;html=1;fontSize=20;" vertex="1" parent="1">
          <mxGeometry x="1190" y="-820" width="200" height="80" as="geometry" />
        </mxCell>
        <mxCell id="fncrMPx4JRAhufwK-6wC-138" value="" style="endArrow=none;html=1;fontSize=20;" edge="1" parent="1">
          <mxGeometry width="50" height="50" relative="1" as="geometry">
            <mxPoint x="1350" y="-820" as="sourcePoint" />
            <mxPoint x="1350" y="-850" as="targetPoint" />
          </mxGeometry>
        </mxCell>
        <mxCell id="fncrMPx4JRAhufwK-6wC-139" value="" style="endArrow=none;html=1;fontSize=20;" edge="1" parent="1">
          <mxGeometry width="50" height="50" relative="1" as="geometry">
            <mxPoint x="1310" y="-820" as="sourcePoint" />
            <mxPoint x="1310" y="-880" as="targetPoint" />
          </mxGeometry>
        </mxCell>
        <mxCell id="fncrMPx4JRAhufwK-6wC-140" value="" style="endArrow=none;html=1;fontSize=20;" edge="1" parent="1">
          <mxGeometry width="50" height="50" relative="1" as="geometry">
            <mxPoint x="1270" y="-820" as="sourcePoint" />
            <mxPoint x="1270" y="-910" as="targetPoint" />
          </mxGeometry>
        </mxCell>
        <mxCell id="fncrMPx4JRAhufwK-6wC-141" value="" style="endArrow=none;html=1;fontSize=20;" edge="1" parent="1">
          <mxGeometry width="50" height="50" relative="1" as="geometry">
            <mxPoint x="1230" y="-820" as="sourcePoint" />
            <mxPoint x="1230" y="-940" as="targetPoint" />
          </mxGeometry>
        </mxCell>
        <mxCell id="fncrMPx4JRAhufwK-6wC-142" value="FA" style="rounded=0;whiteSpace=wrap;html=1;fontSize=20;" vertex="1" parent="1">
          <mxGeometry x="2150" y="-620" width="200" height="80" as="geometry" />
        </mxCell>
        <mxCell id="fncrMPx4JRAhufwK-6wC-143" value="" style="endArrow=none;html=1;fontSize=20;" edge="1" parent="1">
          <mxGeometry width="50" height="50" relative="1" as="geometry">
            <mxPoint x="2270" y="-620" as="sourcePoint" />
            <mxPoint x="2270" y="-740" as="targetPoint" />
          </mxGeometry>
        </mxCell>
        <mxCell id="fncrMPx4JRAhufwK-6wC-144" value="" style="endArrow=none;html=1;fontSize=20;" edge="1" parent="1">
          <mxGeometry width="50" height="50" relative="1" as="geometry">
            <mxPoint x="2230" y="-620" as="sourcePoint" />
            <mxPoint x="2230" y="-650" as="targetPoint" />
          </mxGeometry>
        </mxCell>
        <mxCell id="fncrMPx4JRAhufwK-6wC-145" value="" style="endArrow=none;html=1;fontSize=20;" edge="1" parent="1">
          <mxGeometry width="50" height="50" relative="1" as="geometry">
            <mxPoint x="2190" y="-620" as="sourcePoint" />
            <mxPoint x="2190" y="-680" as="targetPoint" />
          </mxGeometry>
        </mxCell>
        <mxCell id="fncrMPx4JRAhufwK-6wC-146" value="x(4)" style="text;html=1;align=center;verticalAlign=middle;resizable=0;points=[];autosize=1;fontSize=20;" vertex="1" parent="1">
          <mxGeometry x="2360" y="-850" width="50" height="30" as="geometry" />
        </mxCell>
        <mxCell id="fncrMPx4JRAhufwK-6wC-147" value="x(3)" style="text;html=1;align=center;verticalAlign=middle;resizable=0;points=[];autosize=1;fontSize=20;" vertex="1" parent="1">
          <mxGeometry x="2360" y="-880" width="50" height="30" as="geometry" />
        </mxCell>
        <mxCell id="fncrMPx4JRAhufwK-6wC-148" value="x(2)" style="text;html=1;align=center;verticalAlign=middle;resizable=0;points=[];autosize=1;fontSize=20;" vertex="1" parent="1">
          <mxGeometry x="2360" y="-910" width="50" height="30" as="geometry" />
        </mxCell>
        <mxCell id="fncrMPx4JRAhufwK-6wC-149" value="x(1)" style="text;html=1;align=center;verticalAlign=middle;resizable=0;points=[];autosize=1;fontSize=20;" vertex="1" parent="1">
          <mxGeometry x="2360" y="-940" width="50" height="30" as="geometry" />
        </mxCell>
        <mxCell id="fncrMPx4JRAhufwK-6wC-150" value="FA" style="rounded=0;whiteSpace=wrap;html=1;fontSize=20;" vertex="1" parent="1">
          <mxGeometry x="1910" y="-620" width="200" height="80" as="geometry" />
        </mxCell>
        <mxCell id="fncrMPx4JRAhufwK-6wC-151" value="" style="endArrow=none;html=1;fontSize=20;entryX=0.2;entryY=1;entryDx=0;entryDy=0;entryPerimeter=0;exitX=0.798;exitY=0;exitDx=0;exitDy=0;exitPerimeter=0;fillColor=#d80073;strokeColor=#A50040;strokeWidth=4;" edge="1" parent="1" source="fncrMPx4JRAhufwK-6wC-150" target="fncrMPx4JRAhufwK-6wC-117">
          <mxGeometry width="50" height="50" relative="1" as="geometry">
            <mxPoint x="2149.43" y="-640" as="sourcePoint" />
            <mxPoint x="2149.43" y="-700" as="targetPoint" />
            <Array as="points">
              <mxPoint x="2070" y="-650" />
              <mxPoint x="2190" y="-720" />
            </Array>
          </mxGeometry>
        </mxCell>
        <mxCell id="fncrMPx4JRAhufwK-6wC-152" value="" style="endArrow=none;html=1;fontSize=20;" edge="1" parent="1">
          <mxGeometry width="50" height="50" relative="1" as="geometry">
            <mxPoint x="2030" y="-620" as="sourcePoint" />
            <mxPoint x="2030" y="-740" as="targetPoint" />
          </mxGeometry>
        </mxCell>
        <mxCell id="fncrMPx4JRAhufwK-6wC-153" value="" style="endArrow=none;html=1;fontSize=20;" edge="1" parent="1">
          <mxGeometry width="50" height="50" relative="1" as="geometry">
            <mxPoint x="1990" y="-620" as="sourcePoint" />
            <mxPoint x="1990" y="-650" as="targetPoint" />
          </mxGeometry>
        </mxCell>
        <mxCell id="fncrMPx4JRAhufwK-6wC-154" value="" style="endArrow=none;html=1;fontSize=20;" edge="1" parent="1">
          <mxGeometry width="50" height="50" relative="1" as="geometry">
            <mxPoint x="1950" y="-620" as="sourcePoint" />
            <mxPoint x="1950" y="-680" as="targetPoint" />
          </mxGeometry>
        </mxCell>
        <mxCell id="fncrMPx4JRAhufwK-6wC-155" value="FA" style="rounded=0;whiteSpace=wrap;html=1;fontSize=20;" vertex="1" parent="1">
          <mxGeometry x="1670" y="-620" width="200" height="80" as="geometry" />
        </mxCell>
        <mxCell id="fncrMPx4JRAhufwK-6wC-156" value="" style="endArrow=none;html=1;fontSize=20;" edge="1" parent="1">
          <mxGeometry width="50" height="50" relative="1" as="geometry">
            <mxPoint x="1790" y="-620" as="sourcePoint" />
            <mxPoint x="1790" y="-740" as="targetPoint" />
          </mxGeometry>
        </mxCell>
        <mxCell id="fncrMPx4JRAhufwK-6wC-157" value="" style="endArrow=none;html=1;fontSize=20;" edge="1" parent="1">
          <mxGeometry width="50" height="50" relative="1" as="geometry">
            <mxPoint x="1750" y="-620" as="sourcePoint" />
            <mxPoint x="1750" y="-650" as="targetPoint" />
          </mxGeometry>
        </mxCell>
        <mxCell id="fncrMPx4JRAhufwK-6wC-158" value="" style="endArrow=none;html=1;fontSize=20;" edge="1" parent="1">
          <mxGeometry width="50" height="50" relative="1" as="geometry">
            <mxPoint x="1710" y="-620" as="sourcePoint" />
            <mxPoint x="1710" y="-680" as="targetPoint" />
          </mxGeometry>
        </mxCell>
        <mxCell id="fncrMPx4JRAhufwK-6wC-159" value="" style="endArrow=none;html=1;fontSize=20;entryX=0.2;entryY=1;entryDx=0;entryDy=0;entryPerimeter=0;exitX=0.798;exitY=0;exitDx=0;exitDy=0;exitPerimeter=0;" edge="1" parent="1">
          <mxGeometry width="50" height="50" relative="1" as="geometry">
            <mxPoint x="1830" y="-620" as="sourcePoint" />
            <mxPoint x="1950.3999999999996" y="-740" as="targetPoint" />
            <Array as="points">
              <mxPoint x="1830.4" y="-650" />
              <mxPoint x="1950.4" y="-720" />
            </Array>
          </mxGeometry>
        </mxCell>
        <mxCell id="fncrMPx4JRAhufwK-6wC-160" value="FA" style="rounded=0;whiteSpace=wrap;html=1;fontSize=20;" vertex="1" parent="1">
          <mxGeometry x="1430" y="-620" width="200" height="80" as="geometry" />
        </mxCell>
        <mxCell id="fncrMPx4JRAhufwK-6wC-161" value="" style="endArrow=none;html=1;fontSize=20;" edge="1" parent="1">
          <mxGeometry width="50" height="50" relative="1" as="geometry">
            <mxPoint x="1550" y="-620" as="sourcePoint" />
            <mxPoint x="1550" y="-740" as="targetPoint" />
          </mxGeometry>
        </mxCell>
        <mxCell id="fncrMPx4JRAhufwK-6wC-162" value="" style="endArrow=none;html=1;fontSize=20;" edge="1" parent="1">
          <mxGeometry width="50" height="50" relative="1" as="geometry">
            <mxPoint x="1510" y="-620" as="sourcePoint" />
            <mxPoint x="1510" y="-650" as="targetPoint" />
          </mxGeometry>
        </mxCell>
        <mxCell id="fncrMPx4JRAhufwK-6wC-163" value="" style="endArrow=none;html=1;fontSize=20;" edge="1" parent="1">
          <mxGeometry width="50" height="50" relative="1" as="geometry">
            <mxPoint x="1470" y="-620" as="sourcePoint" />
            <mxPoint x="1470" y="-680" as="targetPoint" />
          </mxGeometry>
        </mxCell>
        <mxCell id="fncrMPx4JRAhufwK-6wC-164" value="FA" style="rounded=0;whiteSpace=wrap;html=1;fontSize=20;" vertex="1" parent="1">
          <mxGeometry x="1190" y="-620" width="200" height="80" as="geometry" />
        </mxCell>
        <mxCell id="fncrMPx4JRAhufwK-6wC-165" value="" style="endArrow=none;html=1;fontSize=20;" edge="1" parent="1">
          <mxGeometry width="50" height="50" relative="1" as="geometry">
            <mxPoint x="1310" y="-620" as="sourcePoint" />
            <mxPoint x="1310" y="-740" as="targetPoint" />
          </mxGeometry>
        </mxCell>
        <mxCell id="fncrMPx4JRAhufwK-6wC-166" value="" style="endArrow=none;html=1;fontSize=20;" edge="1" parent="1">
          <mxGeometry width="50" height="50" relative="1" as="geometry">
            <mxPoint x="1270" y="-620" as="sourcePoint" />
            <mxPoint x="1270" y="-650" as="targetPoint" />
          </mxGeometry>
        </mxCell>
        <mxCell id="fncrMPx4JRAhufwK-6wC-167" value="" style="endArrow=none;html=1;fontSize=20;" edge="1" parent="1">
          <mxGeometry width="50" height="50" relative="1" as="geometry">
            <mxPoint x="1230" y="-620" as="sourcePoint" />
            <mxPoint x="1230" y="-680" as="targetPoint" />
          </mxGeometry>
        </mxCell>
        <mxCell id="fncrMPx4JRAhufwK-6wC-168" value="" style="endArrow=none;html=1;fontSize=20;entryX=0.2;entryY=1;entryDx=0;entryDy=0;entryPerimeter=0;exitX=0.798;exitY=0;exitDx=0;exitDy=0;exitPerimeter=0;" edge="1" parent="1">
          <mxGeometry width="50" height="50" relative="1" as="geometry">
            <mxPoint x="1590" y="-620" as="sourcePoint" />
            <mxPoint x="1710.3999999999996" y="-740" as="targetPoint" />
            <Array as="points">
              <mxPoint x="1590.4" y="-650" />
              <mxPoint x="1710.4" y="-720" />
            </Array>
          </mxGeometry>
        </mxCell>
        <mxCell id="fncrMPx4JRAhufwK-6wC-169" value="" style="endArrow=none;html=1;fontSize=20;entryX=0.2;entryY=1;entryDx=0;entryDy=0;entryPerimeter=0;exitX=0.798;exitY=0;exitDx=0;exitDy=0;exitPerimeter=0;" edge="1" parent="1">
          <mxGeometry width="50" height="50" relative="1" as="geometry">
            <mxPoint x="1350" y="-620" as="sourcePoint" />
            <mxPoint x="1470.3999999999996" y="-740" as="targetPoint" />
            <Array as="points">
              <mxPoint x="1350.4" y="-650" />
              <mxPoint x="1470.4" y="-720" />
            </Array>
          </mxGeometry>
        </mxCell>
        <mxCell id="fncrMPx4JRAhufwK-6wC-170" value="" style="endArrow=none;html=1;fontSize=20;fillColor=#d80073;strokeColor=#A50040;strokeWidth=4;" edge="1" parent="1">
          <mxGeometry width="50" height="50" relative="1" as="geometry">
            <mxPoint x="2030" y="-460" as="sourcePoint" />
            <mxPoint x="2030" y="-540" as="targetPoint" />
          </mxGeometry>
        </mxCell>
        <mxCell id="fncrMPx4JRAhufwK-6wC-171" value="" style="endArrow=none;html=1;fontSize=20;" edge="1" parent="1">
          <mxGeometry width="50" height="50" relative="1" as="geometry">
            <mxPoint x="2070" y="-460" as="sourcePoint" />
            <mxPoint x="2190" y="-540" as="targetPoint" />
            <Array as="points">
              <mxPoint x="2070" y="-490" />
              <mxPoint x="2190" y="-510" />
            </Array>
          </mxGeometry>
        </mxCell>
        <mxCell id="fncrMPx4JRAhufwK-6wC-172" value="" style="endArrow=classic;html=1;fontSize=20;" edge="1" parent="1">
          <mxGeometry width="50" height="50" relative="1" as="geometry">
            <mxPoint x="2270" y="-540" as="sourcePoint" />
            <mxPoint x="2270" y="-340" as="targetPoint" />
          </mxGeometry>
        </mxCell>
        <mxCell id="fncrMPx4JRAhufwK-6wC-173" value="CPA" style="rounded=0;whiteSpace=wrap;html=1;fontSize=20;" vertex="1" parent="1">
          <mxGeometry x="1020" y="-460" width="1090" height="80" as="geometry" />
        </mxCell>
        <mxCell id="fncrMPx4JRAhufwK-6wC-174" value="" style="endArrow=none;html=1;fontSize=20;" edge="1" parent="1">
          <mxGeometry width="50" height="50" relative="1" as="geometry">
            <mxPoint x="1790" y="-460" as="sourcePoint" />
            <mxPoint x="1790" y="-540" as="targetPoint" />
          </mxGeometry>
        </mxCell>
        <mxCell id="fncrMPx4JRAhufwK-6wC-175" value="" style="endArrow=none;html=1;fontSize=20;" edge="1" parent="1">
          <mxGeometry width="50" height="50" relative="1" as="geometry">
            <mxPoint x="1830" y="-460" as="sourcePoint" />
            <mxPoint x="1950" y="-540" as="targetPoint" />
            <Array as="points">
              <mxPoint x="1830" y="-490" />
              <mxPoint x="1950" y="-510" />
            </Array>
          </mxGeometry>
        </mxCell>
        <mxCell id="fncrMPx4JRAhufwK-6wC-176" value="" style="endArrow=none;html=1;fontSize=20;" edge="1" parent="1">
          <mxGeometry width="50" height="50" relative="1" as="geometry">
            <mxPoint x="1550" y="-460" as="sourcePoint" />
            <mxPoint x="1550" y="-540" as="targetPoint" />
          </mxGeometry>
        </mxCell>
        <mxCell id="fncrMPx4JRAhufwK-6wC-177" value="" style="endArrow=none;html=1;fontSize=20;" edge="1" parent="1">
          <mxGeometry width="50" height="50" relative="1" as="geometry">
            <mxPoint x="1590" y="-460" as="sourcePoint" />
            <mxPoint x="1710" y="-540" as="targetPoint" />
            <Array as="points">
              <mxPoint x="1590" y="-490" />
              <mxPoint x="1710" y="-510" />
            </Array>
          </mxGeometry>
        </mxCell>
        <mxCell id="fncrMPx4JRAhufwK-6wC-178" value="" style="endArrow=none;html=1;fontSize=20;" edge="1" parent="1">
          <mxGeometry width="50" height="50" relative="1" as="geometry">
            <mxPoint x="1310" y="-460" as="sourcePoint" />
            <mxPoint x="1310" y="-540" as="targetPoint" />
          </mxGeometry>
        </mxCell>
        <mxCell id="fncrMPx4JRAhufwK-6wC-179" value="" style="endArrow=none;html=1;fontSize=20;" edge="1" parent="1">
          <mxGeometry width="50" height="50" relative="1" as="geometry">
            <mxPoint x="1350" y="-460" as="sourcePoint" />
            <mxPoint x="1470" y="-540" as="targetPoint" />
            <Array as="points">
              <mxPoint x="1350" y="-490" />
              <mxPoint x="1470" y="-510" />
            </Array>
          </mxGeometry>
        </mxCell>
        <mxCell id="fncrMPx4JRAhufwK-6wC-180" value="" style="endArrow=none;html=1;fontSize=20;" edge="1" parent="1">
          <mxGeometry width="50" height="50" relative="1" as="geometry">
            <mxPoint x="1110" y="-460" as="sourcePoint" />
            <mxPoint x="1230" y="-540" as="targetPoint" />
            <Array as="points">
              <mxPoint x="1110" y="-490" />
              <mxPoint x="1230" y="-510" />
            </Array>
          </mxGeometry>
        </mxCell>
        <mxCell id="fncrMPx4JRAhufwK-6wC-181" value="" style="endArrow=none;html=1;fontSize=20;exitX=0.046;exitY=-0.001;exitDx=0;exitDy=0;exitPerimeter=0;" edge="1" parent="1" source="fncrMPx4JRAhufwK-6wC-173">
          <mxGeometry width="50" height="50" relative="1" as="geometry">
            <mxPoint x="1067" y="-461" as="sourcePoint" />
            <mxPoint x="1230" y="-740" as="targetPoint" />
            <Array as="points">
              <mxPoint x="1070" y="-580" />
              <mxPoint x="1230" y="-720" />
            </Array>
          </mxGeometry>
        </mxCell>
        <mxCell id="fncrMPx4JRAhufwK-6wC-182" value="" style="endArrow=classic;html=1;fontSize=20;" edge="1" parent="1">
          <mxGeometry width="50" height="50" relative="1" as="geometry">
            <mxPoint x="2050" y="-380" as="sourcePoint" />
            <mxPoint x="2050" y="-340" as="targetPoint" />
          </mxGeometry>
        </mxCell>
        <mxCell id="fncrMPx4JRAhufwK-6wC-183" value="" style="endArrow=classic;html=1;fontSize=20;" edge="1" parent="1">
          <mxGeometry width="50" height="50" relative="1" as="geometry">
            <mxPoint x="1810" y="-380" as="sourcePoint" />
            <mxPoint x="1810" y="-340" as="targetPoint" />
          </mxGeometry>
        </mxCell>
        <mxCell id="fncrMPx4JRAhufwK-6wC-184" value="" style="endArrow=classic;html=1;fontSize=20;" edge="1" parent="1">
          <mxGeometry width="50" height="50" relative="1" as="geometry">
            <mxPoint x="1570" y="-380" as="sourcePoint" />
            <mxPoint x="1570" y="-340" as="targetPoint" />
          </mxGeometry>
        </mxCell>
        <mxCell id="fncrMPx4JRAhufwK-6wC-185" value="" style="endArrow=classic;html=1;fontSize=20;" edge="1" parent="1">
          <mxGeometry width="50" height="50" relative="1" as="geometry">
            <mxPoint x="1330" y="-380" as="sourcePoint" />
            <mxPoint x="1330" y="-340" as="targetPoint" />
          </mxGeometry>
        </mxCell>
        <mxCell id="fncrMPx4JRAhufwK-6wC-186" value="" style="endArrow=classic;html=1;fontSize=20;" edge="1" parent="1">
          <mxGeometry width="50" height="50" relative="1" as="geometry">
            <mxPoint x="1090" y="-380" as="sourcePoint" />
            <mxPoint x="1090" y="-340" as="targetPoint" />
          </mxGeometry>
        </mxCell>
        <mxCell id="fncrMPx4JRAhufwK-6wC-187" value="" style="endArrow=classic;html=1;fontSize=20;exitX=0;exitY=0.5;exitDx=0;exitDy=0;" edge="1" parent="1" source="fncrMPx4JRAhufwK-6wC-173">
          <mxGeometry width="50" height="50" relative="1" as="geometry">
            <mxPoint x="950" y="-310" as="sourcePoint" />
            <mxPoint x="970" y="-340" as="targetPoint" />
            <Array as="points">
              <mxPoint x="970" y="-420" />
            </Array>
          </mxGeometry>
        </mxCell>
        <mxCell id="fncrMPx4JRAhufwK-6wC-188" value="" style="endArrow=classic;html=1;strokeWidth=4;fillColor=#d80073;strokeColor=#A50040;" edge="1" parent="1">
          <mxGeometry width="50" height="50" relative="1" as="geometry">
            <mxPoint x="452.5" y="-390" as="sourcePoint" />
            <mxPoint x="-492.5" y="-370" as="targetPoint" />
            <Array as="points">
              <mxPoint x="452.5" y="-370" />
            </Array>
          </mxGeometry>
        </mxCell>
        <mxCell id="fncrMPx4JRAhufwK-6wC-189" value="" style="endArrow=classic;html=1;strokeWidth=4;fillColor=#d80073;strokeColor=#A50040;" edge="1" parent="1">
          <mxGeometry width="50" height="50" relative="1" as="geometry">
            <mxPoint x="2045" y="-460" as="sourcePoint" />
            <mxPoint x="870" y="-440" as="targetPoint" />
            <Array as="points">
              <mxPoint x="2045" y="-440" />
            </Array>
          </mxGeometry>
        </mxCell>
      </root>
    </mxGraphModel>
  </diagram>
</mxfile>
